<svg width="22" height="22" viewBox="0 0 22 22" fill="none" xmlns="http://www.w3.org/2000/svg">
<path d="M11 5.09668H20.1667" stroke="#718096" stroke-width="1.5" stroke-miterlimit="10" stroke-linecap="round" stroke-linejoin="round"/>
<path d="M13.035 1.83337H18.1317C19.7633 1.83337 20.1667 2.23671 20.1667 3.85004V7.61754C20.1667 9.23087 19.7633 9.63421 18.1317 9.63421H13.035C11.4033 9.63421 11 9.23087 11 7.61754V3.85004C11 2.23671 11.4033 1.83337 13.035 1.83337Z" stroke="#718096" stroke-width="1.5" stroke-linecap="round" stroke-linejoin="round"/>
<path d="M1.83301 15.6383H10.9997" stroke="#718096" stroke-width="1.5" stroke-miterlimit="10" stroke-linecap="round" stroke-linejoin="round"/>
<path d="M3.86801 12.375H8.96467C10.5963 12.375 10.9997 12.7783 10.9997 14.3917V18.1592C10.9997 19.7725 10.5963 20.1758 8.96467 20.1758H3.86801C2.23634 20.1758 1.83301 19.7725 1.83301 18.1592V14.3917C1.83301 12.7783 2.23634 12.375 3.86801 12.375Z" stroke="#718096" stroke-width="1.5" stroke-linecap="round" stroke-linejoin="round"/>
<path d="M20.1667 13.75C20.1667 17.2975 17.2975 20.1667 13.75 20.1667L14.7125 18.5625" stroke="#718096" stroke-width="1.5" stroke-linecap="round" stroke-linejoin="round"/>
<path d="M1.83301 8.25004C1.83301 4.70254 4.70217 1.83337 8.24967 1.83337L7.28719 3.43754" stroke="#718096" stroke-width="1.5" stroke-linecap="round" stroke-linejoin="round"/>
</svg>
