<svg width="22" height="22" viewBox="0 0 22 22" fill="none" xmlns="http://www.w3.org/2000/svg">
<path d="M8.07615 1.83337L4.75781 5.16087" stroke="#718096" stroke-width="1.5" stroke-miterlimit="10" stroke-linecap="round" stroke-linejoin="round"/>
<path d="M13.9238 1.83337L17.2422 5.16087" stroke="#718096" stroke-width="1.5" stroke-miterlimit="10" stroke-linecap="round" stroke-linejoin="round"/>
<path d="M1.83301 7.19588C1.83301 5.50005 2.74051 5.36255 3.86801 5.36255H18.1313C19.2588 5.36255 20.1663 5.50005 20.1663 7.19588C20.1663 9.16672 19.2588 9.02922 18.1313 9.02922H3.86801C2.74051 9.02922 1.83301 9.16672 1.83301 7.19588Z" stroke="#718096" stroke-width="1.5"/>
<path d="M8.94629 12.8334V16.0875" stroke="#718096" stroke-width="1.5" stroke-linecap="round"/>
<path d="M13.1631 12.8334V16.0875" stroke="#718096" stroke-width="1.5" stroke-linecap="round"/>
<path d="M3.20801 9.16663L4.50051 17.0866C4.79384 18.865 5.49967 20.1666 8.12134 20.1666H13.6488C16.4997 20.1666 16.9213 18.92 17.2513 17.1966L18.7913 9.16663" stroke="#718096" stroke-width="1.5" stroke-linecap="round"/>
</svg>
